<svg width="19" height="19" viewBox="0 0 19 19" fill="none" xmlns="http://www.w3.org/2000/svg">
<path d="M14.0844 6.35865C14.0145 6.28817 13.9314 6.23223 13.8398 6.19406C13.7481 6.15588 13.6498 6.13623 13.5506 6.13623C13.4513 6.13623 13.353 6.15588 13.2614 6.19406C13.1698 6.23223 13.0866 6.28817 13.0167 6.35865L7.41485 11.968L5.06131 9.60698C4.98874 9.53687 4.90306 9.48174 4.80918 9.44474C4.7153 9.40775 4.61505 9.3896 4.51415 9.39135C4.41326 9.39309 4.3137 9.41469 4.22115 9.45492C4.1286 9.49514 4.04489 9.5532 3.97478 9.62578C3.90467 9.69835 3.84954 9.78403 3.81254 9.87791C3.77555 9.97179 3.7574 10.072 3.75915 10.1729C3.76089 10.2738 3.7825 10.3734 3.82272 10.4659C3.86294 10.5585 3.921 10.6422 3.99358 10.7123L6.88098 13.5997C6.95088 13.6702 7.03405 13.7261 7.12567 13.7643C7.2173 13.8025 7.31559 13.8221 7.41485 13.8221C7.51411 13.8221 7.61239 13.8025 7.70402 13.7643C7.79565 13.7261 7.87882 13.6702 7.94872 13.5997L14.0844 7.46398C14.1608 7.39357 14.2217 7.30811 14.2633 7.213C14.305 7.11788 14.3265 7.01516 14.3265 6.91132C14.3265 6.80747 14.305 6.70476 14.2633 6.60964C14.2217 6.51452 14.1608 6.42906 14.0844 6.35865V6.35865Z" fill="black"/>
</svg>
