<svg width="18" height="18" viewBox="0 0 18 18" fill="none" xmlns="http://www.w3.org/2000/svg">
<path d="M13.9748 5.73272C13.909 5.66641 13.8308 5.61377 13.7446 5.57785C13.6584 5.54193 13.5659 5.52344 13.4725 5.52344C13.3791 5.52344 13.2866 5.54193 13.2004 5.57785C13.1142 5.61377 13.0359 5.66641 12.9701 5.73272L7.699 11.0109L5.48443 8.78927C5.41613 8.7233 5.33552 8.67142 5.24718 8.63661C5.15884 8.6018 5.06451 8.58473 4.96957 8.58637C4.87463 8.58801 4.78095 8.60834 4.69387 8.64618C4.60678 8.68403 4.52801 8.73866 4.46204 8.80695C4.39607 8.87525 4.3442 8.95586 4.30939 9.0442C4.27457 9.13254 4.2575 9.22687 4.25914 9.32181C4.26078 9.41675 4.28111 9.51043 4.31896 9.59751C4.35681 9.6846 4.41144 9.76337 4.47973 9.82934L7.19666 12.5463C7.26243 12.6126 7.34068 12.6652 7.4269 12.7011C7.51312 12.7371 7.6056 12.7556 7.699 12.7556C7.79241 12.7556 7.88488 12.7371 7.9711 12.7011C8.05732 12.6652 8.13558 12.6126 8.20135 12.5463L13.9748 6.7728C14.0466 6.70654 14.104 6.62613 14.1432 6.53663C14.1824 6.44713 14.2026 6.35047 14.2026 6.25276C14.2026 6.15505 14.1824 6.0584 14.1432 5.96889C14.104 5.87939 14.0466 5.79898 13.9748 5.73272V5.73272Z" fill="black"/>
</svg>
