<svg width="18" height="18" viewBox="0 0 18 18" fill="none" xmlns="http://www.w3.org/2000/svg">
<path d="M13.9748 5.17657C13.909 5.11026 13.8308 5.05762 13.7446 5.0217C13.6584 4.98578 13.5659 4.96729 13.4725 4.96729C13.3791 4.96729 13.2866 4.98578 13.2004 5.0217C13.1142 5.05762 13.0359 5.11026 12.9701 5.17657L7.699 10.4548L5.48443 8.23311C5.41613 8.16714 5.33552 8.11527 5.24718 8.08046C5.15884 8.04565 5.06451 8.02857 4.96957 8.03022C4.87463 8.03186 4.78095 8.05218 4.69387 8.09003C4.60678 8.12788 4.52801 8.18251 4.46204 8.2508C4.39607 8.31909 4.3442 8.39971 4.30939 8.48805C4.27457 8.57639 4.2575 8.67072 4.25914 8.76566C4.26078 8.8606 4.28111 8.95428 4.31896 9.04136C4.35681 9.12844 4.41144 9.20722 4.47973 9.27319L7.19666 11.9901C7.26243 12.0564 7.34068 12.1091 7.4269 12.145C7.51312 12.1809 7.6056 12.1994 7.699 12.1994C7.79241 12.1994 7.88488 12.1809 7.9711 12.145C8.05732 12.1091 8.13558 12.0564 8.20135 11.9901L13.9748 6.21665C14.0466 6.15039 14.104 6.06998 14.1432 5.98048C14.1824 5.89097 14.2026 5.79432 14.2026 5.69661C14.2026 5.5989 14.1824 5.50224 14.1432 5.41274C14.104 5.32324 14.0466 5.24283 13.9748 5.17657V5.17657Z" fill="black"/>
</svg>
