<svg width="18" height="18" viewBox="0 0 18 18" fill="none" xmlns="http://www.w3.org/2000/svg">
<path d="M13.9748 6.0252C13.909 5.95889 13.8308 5.90625 13.7446 5.87033C13.6584 5.83441 13.5659 5.81592 13.4725 5.81592C13.3791 5.81592 13.2866 5.83441 13.2004 5.87033C13.1142 5.90625 13.0359 5.95889 12.9701 6.0252L7.699 11.3034L5.48443 9.08175C5.41613 9.01578 5.33552 8.96391 5.24718 8.92909C5.15884 8.89428 5.06451 8.87721 4.96957 8.87885C4.87463 8.88049 4.78095 8.90082 4.69387 8.93866C4.60678 8.97651 4.52801 9.03114 4.46204 9.09944C4.39607 9.16773 4.3442 9.24834 4.30939 9.33668C4.27457 9.42502 4.2575 9.51935 4.25914 9.61429C4.26078 9.70923 4.28111 9.80291 4.31896 9.88999C4.35681 9.97708 4.41144 10.0559 4.47973 10.1218L7.19666 12.8387C7.26243 12.9051 7.34068 12.9577 7.4269 12.9936C7.51312 13.0295 7.6056 13.048 7.699 13.048C7.79241 13.048 7.88488 13.0295 7.9711 12.9936C8.05732 12.9577 8.13558 12.9051 8.20135 12.8387L13.9748 7.06528C14.0466 6.99902 14.104 6.91861 14.1432 6.82911C14.1824 6.73961 14.2026 6.64295 14.2026 6.54524C14.2026 6.44753 14.1824 6.35088 14.1432 6.26137C14.104 6.17187 14.0466 6.09146 13.9748 6.0252V6.0252Z" fill="black"/>
</svg>
