<svg width="19" height="19" viewBox="0 0 19 19" fill="none" xmlns="http://www.w3.org/2000/svg">
<path d="M14.0844 5.94263C14.0145 5.87216 13.9314 5.81622 13.8398 5.77804C13.7481 5.73987 13.6498 5.72021 13.5506 5.72021C13.4513 5.72021 13.353 5.73987 13.2614 5.77804C13.1698 5.81622 13.0866 5.87216 13.0167 5.94263L7.41485 11.552L5.06131 9.19096C4.98874 9.12085 4.90306 9.06573 4.80918 9.02873C4.7153 8.99173 4.61505 8.97359 4.51415 8.97533C4.41326 8.97708 4.3137 8.99868 4.22115 9.0389C4.1286 9.07913 4.04489 9.13718 3.97478 9.20976C3.90467 9.28234 3.84954 9.36801 3.81254 9.4619C3.77555 9.55578 3.7574 9.65603 3.75915 9.75692C3.76089 9.85782 3.7825 9.95738 3.82272 10.0499C3.86294 10.1425 3.921 10.2262 3.99358 10.2963L6.88098 13.1837C6.95088 13.2542 7.03405 13.3101 7.12567 13.3483C7.2173 13.3865 7.31559 13.4061 7.41485 13.4061C7.51411 13.4061 7.61239 13.3865 7.70402 13.3483C7.79565 13.3101 7.87882 13.2542 7.94872 13.1837L14.0844 7.04797C14.1608 6.97756 14.2217 6.8921 14.2633 6.79698C14.305 6.70186 14.3265 6.59914 14.3265 6.4953C14.3265 6.39146 14.305 6.28874 14.2633 6.19362C14.2217 6.0985 14.1608 6.01305 14.0844 5.94263V5.94263Z" fill="black"/>
</svg>
