<svg width="18" height="18" viewBox="0 0 18 18" fill="none" xmlns="http://www.w3.org/2000/svg">
<path d="M13.9748 5.3172C13.909 5.25088 13.8308 5.19824 13.7446 5.16232C13.6584 5.1264 13.5659 5.10791 13.4725 5.10791C13.3791 5.10791 13.2866 5.1264 13.2004 5.16232C13.1142 5.19824 13.0359 5.25088 12.9701 5.3172L7.699 10.5954L5.48443 8.37374C5.41613 8.30777 5.33552 8.2559 5.24718 8.22108C5.15884 8.18627 5.06451 8.1692 4.96957 8.17084C4.87463 8.17248 4.78095 8.19281 4.69387 8.23066C4.60678 8.26851 4.52801 8.32314 4.46204 8.39143C4.39607 8.45972 4.3442 8.54034 4.30939 8.62868C4.27457 8.71701 4.2575 8.81135 4.25914 8.90628C4.26078 9.00122 4.28111 9.0949 4.31896 9.18199C4.35681 9.26907 4.41144 9.34784 4.47973 9.41381L7.19666 12.1307C7.26243 12.1971 7.34068 12.2497 7.4269 12.2856C7.51312 12.3215 7.6056 12.34 7.699 12.34C7.79241 12.34 7.88488 12.3215 7.9711 12.2856C8.05732 12.2497 8.13558 12.1971 8.20135 12.1307L13.9748 6.35727C14.0466 6.29102 14.104 6.2106 14.1432 6.1211C14.1824 6.0316 14.2026 5.93495 14.2026 5.83723C14.2026 5.73952 14.1824 5.64287 14.1432 5.55337C14.104 5.46386 14.0466 5.38345 13.9748 5.3172V5.3172Z" fill="black"/>
</svg>
