<svg width="19" height="19" viewBox="0 0 19 19" fill="none" xmlns="http://www.w3.org/2000/svg">
<path d="M14.0844 5.65064C14.0145 5.58016 13.9314 5.52423 13.8398 5.48605C13.7481 5.44788 13.6498 5.42822 13.5506 5.42822C13.4513 5.42822 13.353 5.44788 13.2614 5.48605C13.1698 5.52423 13.0866 5.58016 13.0167 5.65064L7.41485 11.26L5.06131 8.89897C4.98874 8.82886 4.90306 8.77373 4.80918 8.73674C4.7153 8.69974 4.61505 8.6816 4.51415 8.68334C4.41326 8.68509 4.3137 8.70669 4.22115 8.74691C4.1286 8.78713 4.04489 8.84519 3.97478 8.91777C3.90467 8.99035 3.84954 9.07602 3.81254 9.1699C3.77555 9.26379 3.7574 9.36404 3.75915 9.46493C3.76089 9.56582 3.7825 9.66539 3.82272 9.75793C3.86294 9.85048 3.921 9.9342 3.99358 10.0043L6.88098 12.8917C6.95088 12.9622 7.03405 13.0181 7.12567 13.0563C7.2173 13.0945 7.31559 13.1141 7.41485 13.1141C7.51411 13.1141 7.61239 13.0945 7.70402 13.0563C7.79565 13.0181 7.87882 12.9622 7.94872 12.8917L14.0844 6.75598C14.1608 6.68556 14.2217 6.60011 14.2633 6.50499C14.305 6.40987 14.3265 6.30715 14.3265 6.20331C14.3265 6.09947 14.305 5.99675 14.2633 5.90163C14.2217 5.80651 14.1608 5.72105 14.0844 5.65064V5.65064Z" fill="black"/>
</svg>
