<svg width="25" height="24" viewBox="0 0 25 24" fill="none" xmlns="http://www.w3.org/2000/svg">
<path d="M21.7928 9.28994L17.7928 5.28994C17.6995 5.1967 17.5888 5.12274 17.467 5.07228C17.3452 5.02182 17.2146 4.99585 17.0828 4.99585C16.8165 4.99585 16.5611 5.10164 16.3728 5.28994C16.1845 5.47825 16.0787 5.73364 16.0787 5.99994C16.0787 6.26624 16.1845 6.52164 16.3728 6.70994L18.6728 8.99994H7.08277C6.81755 8.99994 6.5632 9.1053 6.37566 9.29283C6.18812 9.48037 6.08277 9.73472 6.08277 9.99994C6.08277 10.2652 6.18812 10.5195 6.37566 10.707C6.5632 10.8946 6.81755 10.9999 7.08277 10.9999H21.0828C21.2802 10.999 21.4729 10.9396 21.6366 10.8292C21.8003 10.7189 21.9277 10.5626 22.0028 10.3799C22.0793 10.1978 22.1003 9.99712 22.0629 9.80313C22.0255 9.60914 21.9315 9.43057 21.7928 9.28994V9.28994ZM17.0828 12.9999H3.08277C2.88534 13.0009 2.69262 13.0603 2.5289 13.1707C2.36518 13.281 2.23779 13.4373 2.16277 13.6199C2.08619 13.8021 2.06526 14.0028 2.10264 14.1968C2.14001 14.3907 2.23401 14.5693 2.37277 14.7099L6.37277 18.7099C6.46573 18.8037 6.57633 18.8781 6.69819 18.9288C6.82005 18.9796 6.95075 19.0057 7.08277 19.0057C7.21478 19.0057 7.34548 18.9796 7.46734 18.9288C7.5892 18.8781 7.6998 18.8037 7.79277 18.7099C7.88649 18.617 7.96089 18.5064 8.01166 18.3845C8.06243 18.2627 8.08856 18.132 8.08856 17.9999C8.08856 17.8679 8.06243 17.7372 8.01166 17.6154C7.96089 17.4935 7.88649 17.3829 7.79277 17.2899L5.49277 14.9999H17.0828C17.348 14.9999 17.6023 14.8946 17.7899 14.707C17.9774 14.5195 18.0828 14.2652 18.0828 13.9999C18.0828 13.7347 17.9774 13.4804 17.7899 13.2928C17.6023 13.1053 17.348 12.9999 17.0828 12.9999Z" fill="black"/>
</svg>
