<svg width="16" height="16" viewBox="0 0 16 16" fill="none" xmlns="http://www.w3.org/2000/svg">
<path d="M14.4733 6.19329L11.8067 3.52663C11.7445 3.46447 11.6707 3.41516 11.5895 3.38152C11.5083 3.34788 11.4212 3.33057 11.3333 3.33057C11.1558 3.33057 10.9855 3.40109 10.86 3.52663C10.7345 3.65216 10.6639 3.82243 10.6639 3.99996C10.6639 4.1775 10.7345 4.34776 10.86 4.47329L12.3933 5.99996H4.66666C4.48985 5.99996 4.32028 6.0702 4.19525 6.19522C4.07023 6.32025 3.99999 6.48982 3.99999 6.66663C3.99999 6.84344 4.07023 7.01301 4.19525 7.13803C4.32028 7.26306 4.48985 7.33329 4.66666 7.33329H14C14.1316 7.33264 14.2601 7.29304 14.3692 7.21948C14.4784 7.14592 14.5633 7.04171 14.6133 6.91996C14.6644 6.79855 14.6783 6.66474 14.6534 6.53542C14.6285 6.40609 14.5658 6.28704 14.4733 6.19329V6.19329ZM11.3333 8.66663H1.99999C1.86837 8.66728 1.7399 8.70689 1.63075 8.78044C1.5216 8.854 1.43667 8.95822 1.38666 9.07996C1.3356 9.20137 1.32166 9.33518 1.34657 9.4645C1.37149 9.59383 1.43415 9.71288 1.52666 9.80663L4.19332 12.4733C4.2553 12.5358 4.32903 12.5854 4.41027 12.6192C4.49151 12.6531 4.57865 12.6705 4.66666 12.6705C4.75467 12.6705 4.8418 12.6531 4.92304 12.6192C5.00428 12.5854 5.07802 12.5358 5.13999 12.4733C5.20248 12.4113 5.25207 12.3376 5.28592 12.2563C5.31976 12.1751 5.33719 12.088 5.33719 12C5.33719 11.912 5.31976 11.8248 5.28592 11.7436C5.25207 11.6623 5.20248 11.5886 5.13999 11.5266L3.60666 9.99996H11.3333C11.5101 9.99996 11.6797 9.92972 11.8047 9.8047C11.9298 9.67967 12 9.51011 12 9.33329C12 9.15648 11.9298 8.98691 11.8047 8.86189C11.6797 8.73687 11.5101 8.66663 11.3333 8.66663Z" fill="black"/>
</svg>
