<svg width="16" height="16" viewBox="0 0 16 16" fill="none" xmlns="http://www.w3.org/2000/svg">
<path d="M14.4734 6.19342L11.8068 3.52675C11.7446 3.46459 11.6708 3.41528 11.5896 3.38164C11.5084 3.348 11.4213 3.33069 11.3334 3.33069C11.1559 3.33069 10.9856 3.40121 10.8601 3.52675C10.7346 3.65229 10.664 3.82255 10.664 4.00008C10.664 4.17762 10.7346 4.34788 10.8601 4.47342L12.3934 6.00008H4.66676C4.48995 6.00008 4.32038 6.07032 4.19536 6.19535C4.07034 6.32037 4.0001 6.48994 4.0001 6.66675C4.0001 6.84356 4.07034 7.01313 4.19536 7.13815C4.32038 7.26318 4.48995 7.33342 4.66676 7.33342H14.0001C14.1317 7.33276 14.2602 7.29316 14.3693 7.2196C14.4785 7.14605 14.5634 7.04183 14.6134 6.92008C14.6645 6.79868 14.6784 6.66487 14.6535 6.53554C14.6286 6.40621 14.5659 6.28717 14.4734 6.19342ZM11.3334 8.66675H2.0001C1.86848 8.66741 1.74 8.70701 1.63086 8.78056C1.52171 8.85412 1.43678 8.95834 1.38676 9.08008C1.33571 9.20149 1.32176 9.3353 1.34668 9.46463C1.3716 9.59395 1.43426 9.713 1.52676 9.80675L4.19343 12.4734C4.25541 12.5359 4.32914 12.5855 4.41038 12.6193C4.49162 12.6532 4.57876 12.6706 4.66676 12.6706C4.75477 12.6706 4.84191 12.6532 4.92315 12.6193C5.00439 12.5855 5.07812 12.5359 5.1401 12.4734C5.20258 12.4114 5.25218 12.3377 5.28603 12.2565C5.31987 12.1752 5.3373 12.0881 5.3373 12.0001C5.3373 11.9121 5.31987 11.8249 5.28603 11.7437C5.25218 11.6625 5.20258 11.5887 5.1401 11.5268L3.60676 10.0001H11.3334C11.5102 10.0001 11.6798 9.92985 11.8048 9.80482C11.9299 9.6798 12.0001 9.51023 12.0001 9.33342C12.0001 9.15661 11.9299 8.98704 11.8048 8.86201C11.6798 8.73699 11.5102 8.66675 11.3334 8.66675Z" fill="black"/>
</svg>
