<svg width="16" height="16" viewBox="0 0 16 16" fill="none" xmlns="http://www.w3.org/2000/svg">
<path d="M14.4734 6.19329L11.8067 3.52663C11.7446 3.46447 11.6708 3.41516 11.5896 3.38152C11.5083 3.34788 11.4213 3.33057 11.3334 3.33057C11.1559 3.33057 10.9856 3.40109 10.8601 3.52663C10.7345 3.65216 10.664 3.82243 10.664 3.99996C10.664 4.1775 10.7345 4.34776 10.8601 4.47329L12.3934 5.99996H4.66672C4.48991 5.99996 4.32034 6.0702 4.19531 6.19522C4.07029 6.32025 4.00005 6.48982 4.00005 6.66663C4.00005 6.84344 4.07029 7.01301 4.19531 7.13803C4.32034 7.26306 4.48991 7.33329 4.66672 7.33329H14.0001C14.1317 7.33264 14.2601 7.29304 14.3693 7.21948C14.4784 7.14592 14.5634 7.04171 14.6134 6.91996C14.6644 6.79855 14.6784 6.66474 14.6535 6.53542C14.6286 6.40609 14.5659 6.28704 14.4734 6.19329V6.19329ZM11.3334 8.66663H2.00005C1.86844 8.66728 1.73996 8.70689 1.63081 8.78044C1.52166 8.854 1.43673 8.95822 1.38672 9.07996C1.33567 9.20137 1.32172 9.33518 1.34663 9.4645C1.37155 9.59383 1.43421 9.71288 1.52672 9.80663L4.19339 12.4733C4.25536 12.5358 4.32909 12.5854 4.41033 12.6192C4.49157 12.6531 4.57871 12.6705 4.66672 12.6705C4.75473 12.6705 4.84186 12.6531 4.9231 12.6192C5.00434 12.5854 5.07808 12.5358 5.14005 12.4733C5.20254 12.4113 5.25213 12.3376 5.28598 12.2563C5.31983 12.1751 5.33725 12.088 5.33725 12C5.33725 11.912 5.31983 11.8248 5.28598 11.7436C5.25213 11.6623 5.20254 11.5886 5.14005 11.5266L3.60672 9.99996H11.3334C11.5102 9.99996 11.6798 9.92972 11.8048 9.8047C11.9298 9.67967 12.0001 9.51011 12.0001 9.33329C12.0001 9.15648 11.9298 8.98691 11.8048 8.86189C11.6798 8.73687 11.5102 8.66663 11.3334 8.66663Z" fill="black"/>
</svg>
