<svg width="16" height="16" viewBox="0 0 16 16" fill="none" xmlns="http://www.w3.org/2000/svg">
<path d="M14.4738 6.19329L11.8071 3.52663C11.7449 3.46447 11.6711 3.41516 11.5899 3.38152C11.5087 3.34788 11.4217 3.33057 11.3338 3.33057C11.1562 3.33057 10.986 3.40109 10.8604 3.52663C10.7349 3.65216 10.6644 3.82243 10.6644 3.99996C10.6644 4.1775 10.7349 4.34776 10.8604 4.47329L12.3938 5.99996H4.66709C4.49028 5.99996 4.32071 6.0702 4.19569 6.19522C4.07066 6.32025 4.00043 6.48982 4.00043 6.66663C4.00043 6.84344 4.07066 7.01301 4.19569 7.13803C4.32071 7.26306 4.49028 7.33329 4.66709 7.33329H14.0004C14.132 7.33264 14.2605 7.29304 14.3697 7.21948C14.4788 7.14592 14.5637 7.04171 14.6138 6.91996C14.6648 6.79855 14.6788 6.66474 14.6538 6.53542C14.6289 6.40609 14.5663 6.28704 14.4738 6.19329V6.19329ZM11.3338 8.66663H2.00043C1.86881 8.66728 1.74033 8.70689 1.63118 8.78044C1.52204 8.854 1.43711 8.95822 1.38709 9.07996C1.33604 9.20137 1.32209 9.33518 1.34701 9.4645C1.37192 9.59383 1.43459 9.71288 1.52709 9.80663L4.19376 12.4733C4.25573 12.5358 4.32947 12.5854 4.41071 12.6192C4.49195 12.6531 4.57908 12.6705 4.66709 12.6705C4.7551 12.6705 4.84224 12.6531 4.92348 12.6192C5.00472 12.5854 5.07845 12.5358 5.14043 12.4733C5.20291 12.4113 5.25251 12.3376 5.28635 12.2563C5.3202 12.1751 5.33762 12.088 5.33762 12C5.33762 11.912 5.3202 11.8248 5.28635 11.7436C5.25251 11.6623 5.20291 11.5886 5.14043 11.5266L3.60709 9.99996H11.3338C11.5106 9.99996 11.6801 9.92972 11.8052 9.8047C11.9302 9.67967 12.0004 9.51011 12.0004 9.33329C12.0004 9.15648 11.9302 8.98691 11.8052 8.86189C11.6801 8.73687 11.5106 8.66663 11.3338 8.66663Z" fill="black"/>
</svg>
