<svg width="25" height="24" viewBox="0 0 25 24" fill="none" xmlns="http://www.w3.org/2000/svg">
<path d="M22.6272 9.28994L18.6272 5.28994C18.534 5.1967 18.4233 5.12274 18.3015 5.07228C18.1797 5.02182 18.0491 4.99585 17.9172 4.99585C17.6509 4.99585 17.3955 5.10164 17.2072 5.28994C17.0189 5.47825 16.9131 5.73364 16.9131 5.99994C16.9131 6.26624 17.0189 6.52164 17.2072 6.70994L19.5072 8.99994H7.91724C7.65202 8.99994 7.39767 9.1053 7.21013 9.29283C7.0226 9.48037 6.91724 9.73472 6.91724 9.99994C6.91724 10.2652 7.0226 10.5195 7.21013 10.707C7.39767 10.8946 7.65202 10.9999 7.91724 10.9999H21.9172C22.1147 10.999 22.3074 10.9396 22.4711 10.8292C22.6348 10.7189 22.7622 10.5626 22.8372 10.3799C22.9138 10.1978 22.9347 9.99712 22.8974 9.80313C22.86 9.60914 22.766 9.43057 22.6272 9.28994V9.28994ZM17.9172 12.9999H3.91724C3.71981 13.0009 3.5271 13.0603 3.36338 13.1707C3.19966 13.281 3.07226 13.4373 2.99724 13.6199C2.92066 13.8021 2.89974 14.0028 2.93711 14.1968C2.97448 14.3907 3.06848 14.5693 3.20724 14.7099L7.20724 18.7099C7.3002 18.8037 7.4108 18.8781 7.53266 18.9288C7.65452 18.9796 7.78523 19.0057 7.91724 19.0057C8.04925 19.0057 8.17996 18.9796 8.30182 18.9288C8.42367 18.8781 8.53428 18.8037 8.62724 18.7099C8.72097 18.617 8.79536 18.5064 8.84613 18.3845C8.8969 18.2627 8.92304 18.132 8.92304 17.9999C8.92304 17.8679 8.8969 17.7372 8.84613 17.6154C8.79536 17.4935 8.72097 17.3829 8.62724 17.2899L6.32724 14.9999H17.9172C18.1825 14.9999 18.4368 14.8946 18.6243 14.707C18.8119 14.5195 18.9172 14.2652 18.9172 13.9999C18.9172 13.7347 18.8119 13.4804 18.6243 13.2928C18.4368 13.1053 18.1825 12.9999 17.9172 12.9999Z" fill="black"/>
</svg>
