<svg width="16" height="17" viewBox="0 0 16 17" fill="none" xmlns="http://www.w3.org/2000/svg">
<path d="M14.4733 6.69329L11.8067 4.02663C11.7445 3.96447 11.6707 3.91516 11.5895 3.88152C11.5083 3.84788 11.4212 3.83057 11.3333 3.83057C11.1558 3.83057 10.9855 3.90109 10.86 4.02663C10.7345 4.15216 10.6639 4.32243 10.6639 4.49996C10.6639 4.6775 10.7345 4.84776 10.86 4.97329L12.3933 6.49996H4.66667C4.48986 6.49996 4.32029 6.5702 4.19527 6.69522C4.07024 6.82025 4.00001 6.98982 4.00001 7.16663C4.00001 7.34344 4.07024 7.51301 4.19527 7.63803C4.32029 7.76306 4.48986 7.83329 4.66667 7.83329H14C14.1316 7.83264 14.2601 7.79304 14.3692 7.71948C14.4784 7.64592 14.5633 7.54171 14.6133 7.41996C14.6644 7.29855 14.6783 7.16474 14.6534 7.03542C14.6285 6.90609 14.5658 6.78704 14.4733 6.69329ZM11.3333 9.16663H2.00001C1.86839 9.16728 1.73991 9.20689 1.63077 9.28044C1.52162 9.354 1.43669 9.45822 1.38667 9.57996C1.33562 9.70137 1.32167 9.83518 1.34659 9.9645C1.3715 10.0938 1.43417 10.2129 1.52667 10.3066L4.19334 12.9733C4.25532 13.0358 4.32905 13.0854 4.41029 13.1192C4.49153 13.1531 4.57867 13.1705 4.66667 13.1705C4.75468 13.1705 4.84182 13.1531 4.92306 13.1192C5.0043 13.0854 5.07803 13.0358 5.14001 12.9733C5.20249 12.9113 5.25209 12.8376 5.28593 12.7563C5.31978 12.6751 5.33721 12.588 5.33721 12.5C5.33721 12.412 5.31978 12.3248 5.28593 12.2436C5.25209 12.1623 5.20249 12.0886 5.14001 12.0266L3.60667 10.5H11.3333C11.5101 10.5 11.6797 10.4297 11.8047 10.3047C11.9298 10.1797 12 10.0101 12 9.83329C12 9.65648 11.9298 9.48691 11.8047 9.36189C11.6797 9.23687 11.5101 9.16663 11.3333 9.16663Z" fill="black"/>
</svg>
