<svg width="14" height="10" viewBox="0 0 14 10" fill="none" xmlns="http://www.w3.org/2000/svg">
<path fill-rule="evenodd" clip-rule="evenodd" d="M13.1625 3.70062C11.702 2.09225 9.55247 0.664447 7.32465 0.56C7.21631 0.553333 7.11131 0.553333 7.0002 0.553333C4.63737 0.572223 2.48677 1.92558 0.921181 3.60895C0.893402 3.63895 0.865624 3.66951 0.837846 3.70007C0.165756 4.43411 0.165756 5.55996 0.837846 6.29401C1.5073 7.03236 3.92846 9.44241 6.92908 9.44241H7.07131C10.0714 9.44241 12.4931 7.03236 13.1637 6.29401C13.8354 5.55986 13.8349 4.43419 13.1625 3.70062ZM12.3414 5.54621C11.1358 6.87291 9.3858 8.13238 7.54021 8.30627C7.36085 8.32514 7.18053 8.33348 7.0002 8.33127C4.98349 8.28405 3.20012 7.15903 1.8412 5.74344C1.77935 5.679 1.71842 5.61362 1.65842 5.54733C1.37667 5.2352 1.37667 4.76054 1.65842 4.44841C2.97345 2.99783 4.96238 1.61724 7.0002 1.66447C7.71623 1.66368 8.42479 1.81005 9.08191 2.09448C9.75632 2.37752 10.3912 2.74671 10.9708 3.19283C11.466 3.56752 11.9254 3.98728 12.3431 4.44675C12.6247 4.75939 12.624 5.23443 12.3414 5.54621ZM6.78241 2.78671C6.85477 2.77936 6.92746 2.77565 7.0002 2.7756C8.22752 2.7756 9.22246 3.77054 9.22246 4.99787C9.22246 6.22519 8.22752 7.22014 7.0002 7.22014C5.77287 7.22014 4.77793 6.22519 4.77793 4.99787C4.77908 4.8455 4.79772 4.69376 4.83348 4.54564C4.84449 4.49926 4.87852 4.46177 4.92362 4.44632C4.96871 4.43088 5.01858 4.43964 5.05571 4.46953C5.47974 4.81612 6.0934 4.80086 6.49967 4.43362C6.90595 4.06637 6.9829 3.45737 6.68074 3.00061C6.65404 2.96018 6.65043 2.90873 6.67123 2.86498C6.69203 2.82122 6.73421 2.79153 6.78241 2.78671Z" fill="#5F738C"/>
</svg>
