<svg width="17" height="17" viewBox="0 0 17 17" fill="none" xmlns="http://www.w3.org/2000/svg">
<path d="M12.024 3.06433C9.49456 1.63748 6.38141 2.09148 4.30598 4.03719V2.86976C4.30598 2.48062 4.04655 2.22119 3.65741 2.22119C3.26827 2.22119 3.00884 2.48062 3.00884 2.86976V5.78834C3.00884 6.17748 3.26827 6.43691 3.65741 6.43691H6.57598C6.96513 6.43691 7.22456 6.17748 7.22456 5.78834C7.22456 5.39919 6.96513 5.13976 6.57598 5.13976H5.01941C5.99227 4.10205 7.35427 3.51833 8.78113 3.51833C11.6348 3.51833 13.9697 5.85319 13.9697 8.70691C13.9697 11.5606 11.6348 13.8955 8.78113 13.8955C5.92741 13.8955 3.59255 11.5606 3.59255 8.70691C3.59255 8.31777 3.33312 8.05834 2.94398 8.05834C2.55484 8.05834 2.29541 8.31777 2.29541 8.70691C2.29541 12.2741 5.21398 15.1926 8.78113 15.1926C11.116 15.1926 13.2563 13.9603 14.4237 11.9498C16.1748 8.83662 15.1371 4.88034 12.024 3.06433ZM8.78113 6.11262C8.39198 6.11262 8.13256 6.37205 8.13256 6.76119V8.70691C8.13256 9.09605 8.39198 9.35548 8.78113 9.35548H10.0783C10.4674 9.35548 10.7268 9.09605 10.7268 8.70691C10.7268 8.31777 10.4674 8.05834 10.0783 8.05834H9.4297V6.76119C9.4297 6.37205 9.17027 6.11262 8.78113 6.11262Z" fill="black"/>
</svg>
