<svg width="17" height="16" viewBox="0 0 17 16" fill="none" xmlns="http://www.w3.org/2000/svg">
<path d="M12.024 2.2157C9.49462 0.788844 6.38147 1.24284 4.30604 3.18856V2.02113C4.30604 1.63199 4.04661 1.37256 3.65747 1.37256C3.26833 1.37256 3.0089 1.63199 3.0089 2.02113V4.9397C3.0089 5.32885 3.26833 5.58828 3.65747 5.58828H6.57604C6.96519 5.58828 7.22462 5.32885 7.22462 4.9397C7.22462 4.55056 6.96519 4.29113 6.57604 4.29113H5.01947C5.99233 3.25342 7.35433 2.6697 8.78119 2.6697C11.6349 2.6697 13.9698 5.00456 13.9698 7.85828C13.9698 10.712 11.6349 13.0469 8.78119 13.0469C5.92747 13.0469 3.59261 10.712 3.59261 7.85828C3.59261 7.46913 3.33319 7.2097 2.94404 7.2097C2.5549 7.2097 2.29547 7.46913 2.29547 7.85828C2.29547 11.4254 5.21404 14.344 8.78119 14.344C11.116 14.344 13.2563 13.1117 14.4238 11.1011C16.1749 7.98799 15.1372 4.0317 12.024 2.2157ZM8.78119 5.26399C8.39205 5.26399 8.13262 5.52342 8.13262 5.91256V7.85828C8.13262 8.24742 8.39205 8.50685 8.78119 8.50685H10.0783C10.4675 8.50685 10.7269 8.24742 10.7269 7.85828C10.7269 7.46913 10.4675 7.2097 10.0783 7.2097H9.42976V5.91256C9.42976 5.52342 9.17033 5.26399 8.78119 5.26399Z" fill="black"/>
</svg>
