<svg width="16" height="17" viewBox="0 0 16 17" fill="none" xmlns="http://www.w3.org/2000/svg">
<path d="M11.2181 3.07752C8.68865 1.65066 5.5755 2.10466 3.50007 4.05038V2.88295C3.50007 2.4938 3.24065 2.23438 2.8515 2.23438C2.46236 2.23438 2.20293 2.4938 2.20293 2.88295V5.80152C2.20293 6.19066 2.46236 6.45009 2.8515 6.45009H5.77008C6.15922 6.45009 6.41865 6.19066 6.41865 5.80152C6.41865 5.41238 6.15922 5.15295 5.77008 5.15295H4.2135C5.18636 4.11523 6.54836 3.53152 7.97522 3.53152C10.8289 3.53152 13.1638 5.86638 13.1638 8.72009C13.1638 11.5738 10.8289 13.9087 7.97522 13.9087C5.1215 13.9087 2.78665 11.5738 2.78665 8.72009C2.78665 8.33095 2.52722 8.07152 2.13807 8.07152C1.74893 8.07152 1.4895 8.33095 1.4895 8.72009C1.4895 12.2872 4.40807 15.2058 7.97522 15.2058C10.3101 15.2058 12.4504 13.9735 13.6178 11.963C15.3689 8.84981 14.3312 4.89352 11.2181 3.07752ZM7.97522 6.12581C7.58608 6.12581 7.32665 6.38523 7.32665 6.77438V8.72009C7.32665 9.10924 7.58608 9.36866 7.97522 9.36866H9.27236C9.66151 9.36866 9.92093 9.10924 9.92093 8.72009C9.92093 8.33095 9.66151 8.07152 9.27236 8.07152H8.62379V6.77438C8.62379 6.38523 8.36436 6.12581 7.97522 6.12581Z" fill="black"/>
</svg>
