<svg width="17" height="16" viewBox="0 0 17 16" fill="none" xmlns="http://www.w3.org/2000/svg">
<path d="M12.024 2.2157C9.49456 0.788844 6.38141 1.24284 4.30598 3.18856V2.02113C4.30598 1.63199 4.04655 1.37256 3.65741 1.37256C3.26827 1.37256 3.00884 1.63199 3.00884 2.02113V4.9397C3.00884 5.32885 3.26827 5.58828 3.65741 5.58828H6.57598C6.96513 5.58828 7.22456 5.32885 7.22456 4.9397C7.22456 4.55056 6.96513 4.29113 6.57598 4.29113H5.01941C5.99227 3.25342 7.35427 2.6697 8.78113 2.6697C11.6348 2.6697 13.9697 5.00456 13.9697 7.85828C13.9697 10.712 11.6348 13.0469 8.78113 13.0469C5.92741 13.0469 3.59255 10.712 3.59255 7.85828C3.59255 7.46913 3.33312 7.2097 2.94398 7.2097C2.55484 7.2097 2.29541 7.46913 2.29541 7.85828C2.29541 11.4254 5.21398 14.344 8.78113 14.344C11.116 14.344 13.2563 13.1117 14.4237 11.1011C16.1748 7.98799 15.1371 4.0317 12.024 2.2157ZM8.78113 5.26399C8.39198 5.26399 8.13256 5.52342 8.13256 5.91256V7.85828C8.13256 8.24742 8.39198 8.50685 8.78113 8.50685H10.0783C10.4674 8.50685 10.7268 8.24742 10.7268 7.85828C10.7268 7.46913 10.4674 7.2097 10.0783 7.2097H9.4297V5.91256C9.4297 5.52342 9.17027 5.26399 8.78113 5.26399Z" fill="black"/>
</svg>
