<svg width="17" height="16" viewBox="0 0 17 16" fill="none" xmlns="http://www.w3.org/2000/svg">
<path d="M12.024 2.35633C9.49456 0.929469 6.38141 1.38347 4.30598 3.32918V2.16176C4.30598 1.77261 4.04655 1.51318 3.65741 1.51318C3.26827 1.51318 3.00884 1.77261 3.00884 2.16176V5.08033C3.00884 5.46947 3.26827 5.7289 3.65741 5.7289H6.57598C6.96513 5.7289 7.22456 5.46947 7.22456 5.08033C7.22456 4.69119 6.96513 4.43176 6.57598 4.43176H5.01941C5.99227 3.39404 7.35427 2.81033 8.78113 2.81033C11.6348 2.81033 13.9697 5.14519 13.9697 7.9989C13.9697 10.8526 11.6348 13.1875 8.78113 13.1875C5.92741 13.1875 3.59255 10.8526 3.59255 7.9989C3.59255 7.60976 3.33312 7.35033 2.94398 7.35033C2.55484 7.35033 2.29541 7.60976 2.29541 7.9989C2.29541 11.566 5.21398 14.4846 8.78113 14.4846C11.116 14.4846 13.2563 13.2523 14.4237 11.2418C16.1748 8.12862 15.1371 4.17233 12.024 2.35633ZM8.78113 5.40461C8.39198 5.40461 8.13256 5.66404 8.13256 6.05319V7.9989C8.13256 8.38804 8.39198 8.64747 8.78113 8.64747H10.0783C10.4674 8.64747 10.7268 8.38804 10.7268 7.9989C10.7268 7.60976 10.4674 7.35033 10.0783 7.35033H9.4297V6.05319C9.4297 5.66404 9.17027 5.40461 8.78113 5.40461Z" fill="black"/>
</svg>
