<svg width="16" height="16" viewBox="0 0 16 16" fill="none" xmlns="http://www.w3.org/2000/svg">
<path d="M11.2182 2.36951C8.68877 0.942653 5.57563 1.39665 3.5002 3.34237V2.17494C3.5002 1.7858 3.24077 1.52637 2.85162 1.52637C2.46248 1.52637 2.20305 1.7858 2.20305 2.17494V5.09351C2.20305 5.48266 2.46248 5.74208 2.85162 5.74208H5.7702C6.15934 5.74208 6.41877 5.48266 6.41877 5.09351C6.41877 4.70437 6.15934 4.44494 5.7702 4.44494H4.21363C5.18648 3.40723 6.54848 2.82351 7.97534 2.82351C10.8291 2.82351 13.1639 5.15837 13.1639 8.01209C13.1639 10.8658 10.8291 13.2007 7.97534 13.2007C5.12163 13.2007 2.78677 10.8658 2.78677 8.01209C2.78677 7.62294 2.52734 7.36351 2.1382 7.36351C1.74905 7.36351 1.48962 7.62294 1.48962 8.01209C1.48962 11.5792 4.4082 14.4978 7.97534 14.4978C10.3102 14.4978 12.4505 13.2655 13.6179 11.2549C15.3691 8.1418 14.3313 4.18551 11.2182 2.36951ZM7.97534 5.4178C7.5862 5.4178 7.32677 5.67723 7.32677 6.06637V8.01209C7.32677 8.40123 7.5862 8.66066 7.97534 8.66066H9.27248C9.66163 8.66066 9.92106 8.40123 9.92106 8.01209C9.92106 7.62294 9.66163 7.36351 9.27248 7.36351H8.62391V6.06637C8.62391 5.67723 8.36448 5.4178 7.97534 5.4178Z" fill="black"/>
</svg>
