<svg width="17" height="17" viewBox="0 0 17 17" fill="none" xmlns="http://www.w3.org/2000/svg">
<path d="M12.0237 2.77185C9.49431 1.345 6.38117 1.799 4.30574 3.74471V2.57728C4.30574 2.18814 4.04631 1.92871 3.65717 1.92871C3.26802 1.92871 3.00859 2.18814 3.00859 2.57728V5.49586C3.00859 5.885 3.26802 6.14443 3.65717 6.14443H6.57574C6.96488 6.14443 7.22431 5.885 7.22431 5.49586C7.22431 5.10671 6.96488 4.84728 6.57574 4.84728H5.01917C5.99202 3.80957 7.35403 3.22585 8.78088 3.22585C11.6346 3.22585 13.9695 5.56071 13.9695 8.41443C13.9695 11.2681 11.6346 13.603 8.78088 13.603C5.92717 13.603 3.59231 11.2681 3.59231 8.41443C3.59231 8.02529 3.33288 7.76586 2.94374 7.76586C2.55459 7.76586 2.29517 8.02529 2.29517 8.41443C2.29517 11.9816 5.21374 14.9001 8.78088 14.9001C11.1157 14.9001 13.256 13.6679 14.4235 11.6573C16.1746 8.54414 15.1369 4.58786 12.0237 2.77185ZM8.78088 5.82014C8.39174 5.82014 8.13231 6.07957 8.13231 6.46871V8.41443C8.13231 8.80357 8.39174 9.063 8.78088 9.063H10.078C10.4672 9.063 10.7266 8.80357 10.7266 8.41443C10.7266 8.02529 10.4672 7.76586 10.078 7.76586H9.42946V6.46871C9.42946 6.07957 9.17003 5.82014 8.78088 5.82014Z" fill="black"/>
</svg>
