<svg width="16" height="17" viewBox="0 0 16 17" fill="none" xmlns="http://www.w3.org/2000/svg">
<path d="M11.2182 2.6615C8.68877 1.23464 5.57563 1.68865 3.5002 3.63436V2.46693C3.5002 2.07779 3.24077 1.81836 2.85162 1.81836C2.46248 1.81836 2.20305 2.07779 2.20305 2.46693V5.3855C2.20305 5.77465 2.46248 6.03408 2.85162 6.03408H5.7702C6.15934 6.03408 6.41877 5.77465 6.41877 5.3855C6.41877 4.99636 6.15934 4.73693 5.7702 4.73693H4.21363C5.18648 3.69922 6.54848 3.1155 7.97534 3.1155C10.8291 3.1155 13.1639 5.45036 13.1639 8.30408C13.1639 11.1578 10.8291 13.4927 7.97534 13.4927C5.12163 13.4927 2.78677 11.1578 2.78677 8.30408C2.78677 7.91493 2.52734 7.65551 2.1382 7.65551C1.74905 7.65551 1.48962 7.91493 1.48962 8.30408C1.48962 11.8712 4.4082 14.7898 7.97534 14.7898C10.3102 14.7898 12.4505 13.5575 13.6179 11.5469C15.3691 8.43379 14.3313 4.4775 11.2182 2.6615ZM7.97534 5.70979C7.5862 5.70979 7.32677 5.96922 7.32677 6.35836V8.30408C7.32677 8.69322 7.5862 8.95265 7.97534 8.95265H9.27248C9.66163 8.95265 9.92106 8.69322 9.92106 8.30408C9.92106 7.91493 9.66163 7.65551 9.27248 7.65551H8.62391V6.35836C8.62391 5.96922 8.36448 5.70979 7.97534 5.70979Z" fill="black"/>
</svg>
