<svg width="24" height="23" viewBox="0 0 24 23" fill="none" xmlns="http://www.w3.org/2000/svg">
<path d="M10.64 5.09665L3.90381 16.6351C3.76493 16.8819 3.69144 17.1617 3.69066 17.4467C3.68989 17.7316 3.76185 18.0119 3.89938 18.2594C4.03692 18.507 4.23524 18.7133 4.47461 18.8578C4.71398 19.0024 4.98606 19.0801 5.26378 19.0832H18.7362C19.0139 19.0801 19.286 19.0024 19.5254 18.8578C19.7647 18.7133 19.9631 18.507 20.1006 18.2594C20.2381 18.0119 20.3101 17.7316 20.3093 17.4467C20.3085 17.1617 20.2351 16.8819 20.0962 16.6351L13.36 5.09665C13.2182 4.85683 13.0186 4.65855 12.7803 4.52094C12.5421 4.38333 12.2734 4.31104 12 4.31104C11.7266 4.31104 11.4579 4.38333 11.2196 4.52094C10.9814 4.65855 10.7818 4.85683 10.64 5.09665Z" stroke="#1D2129" stroke-width="1.38489" stroke-linecap="round" stroke-linejoin="round"/>
<path d="M12.0002 9.29077V12.5548" stroke="#1D2129" stroke-width="1.38489" stroke-linecap="round" stroke-linejoin="round"/>
<path d="M12.0002 15.8191H12.0091" stroke="#1D2129" stroke-width="1.38489" stroke-linecap="round" stroke-linejoin="round"/>
</svg>
