<svg width="18" height="18" viewBox="0 0 18 18" fill="none" xmlns="http://www.w3.org/2000/svg">
<path d="M2.19061 5.8324H14.9688C15.1571 5.8324 15.3376 5.7576 15.4708 5.62447C15.6039 5.49134 15.6787 5.31077 15.6787 5.1225C15.6787 4.93422 15.6039 4.75365 15.4708 4.62052C15.3376 4.48739 15.1571 4.4126 14.9688 4.4126H2.19061C2.00234 4.4126 1.82177 4.48739 1.68864 4.62052C1.55551 4.75365 1.48071 4.93422 1.48071 5.1225C1.48071 5.31077 1.55551 5.49134 1.68864 5.62447C1.82177 5.7576 2.00234 5.8324 2.19061 5.8324V5.8324ZM14.9688 12.9314H2.19061C2.00234 12.9314 1.82177 13.0062 1.68864 13.1393C1.55551 13.2724 1.48071 13.453 1.48071 13.6413C1.48071 13.8296 1.55551 14.0101 1.68864 14.1433C1.82177 14.2764 2.00234 14.3512 2.19061 14.3512H14.9688C15.1571 14.3512 15.3376 14.2764 15.4708 14.1433C15.6039 14.0101 15.6787 13.8296 15.6787 13.6413C15.6787 13.453 15.6039 13.2724 15.4708 13.1393C15.3376 13.0062 15.1571 12.9314 14.9688 12.9314ZM14.9688 10.0918H2.19061C2.00234 10.0918 1.82177 10.1666 1.68864 10.2997C1.55551 10.4328 1.48071 10.6134 1.48071 10.8017C1.48071 10.99 1.55551 11.1705 1.68864 11.3037C1.82177 11.4368 2.00234 11.5116 2.19061 11.5116H14.9688C15.1571 11.5116 15.3376 11.4368 15.4708 11.3037C15.6039 11.1705 15.6787 10.99 15.6787 10.8017C15.6787 10.6134 15.6039 10.4328 15.4708 10.2997C15.3376 10.1666 15.1571 10.0918 14.9688 10.0918ZM14.9688 7.2522H2.19061C2.00234 7.2522 1.82177 7.32699 1.68864 7.46012C1.55551 7.59325 1.48071 7.77382 1.48071 7.96209C1.48071 8.15037 1.55551 8.33094 1.68864 8.46407C1.82177 8.5972 2.00234 8.67199 2.19061 8.67199H14.9688C15.1571 8.67199 15.3376 8.5972 15.4708 8.46407C15.6039 8.33094 15.6787 8.15037 15.6787 7.96209C15.6787 7.77382 15.6039 7.59325 15.4708 7.46012C15.3376 7.32699 15.1571 7.2522 14.9688 7.2522Z" fill="black"/>
</svg>
