<svg width="18" height="18" viewBox="0 0 18 18" fill="none" xmlns="http://www.w3.org/2000/svg">
<path d="M2.19058 5.83288H14.9688C15.157 5.83288 15.3376 5.75809 15.4707 5.62496C15.6039 5.49183 15.6787 5.31126 15.6787 5.12299C15.6787 4.93471 15.6039 4.75414 15.4707 4.62101C15.3376 4.48788 15.157 4.41309 14.9688 4.41309H2.19058C2.0023 4.41309 1.82174 4.48788 1.68861 4.62101C1.55548 4.75414 1.48068 4.93471 1.48068 5.12299C1.48068 5.31126 1.55548 5.49183 1.68861 5.62496C1.82174 5.75809 2.0023 5.83288 2.19058 5.83288V5.83288ZM14.9688 12.9319H2.19058C2.0023 12.9319 1.82174 13.0067 1.68861 13.1398C1.55548 13.2729 1.48068 13.4535 1.48068 13.6418C1.48068 13.8301 1.55548 14.0106 1.68861 14.1438C1.82174 14.2769 2.0023 14.3517 2.19058 14.3517H14.9688C15.157 14.3517 15.3376 14.2769 15.4707 14.1438C15.6039 14.0106 15.6787 13.8301 15.6787 13.6418C15.6787 13.4535 15.6039 13.2729 15.4707 13.1398C15.3376 13.0067 15.157 12.9319 14.9688 12.9319ZM14.9688 10.0923H2.19058C2.0023 10.0923 1.82174 10.1671 1.68861 10.3002C1.55548 10.4333 1.48068 10.6139 1.48068 10.8022C1.48068 10.9905 1.55548 11.171 1.68861 11.3042C1.82174 11.4373 2.0023 11.5121 2.19058 11.5121H14.9688C15.157 11.5121 15.3376 11.4373 15.4707 11.3042C15.6039 11.171 15.6787 10.9905 15.6787 10.8022C15.6787 10.6139 15.6039 10.4333 15.4707 10.3002C15.3376 10.1671 15.157 10.0923 14.9688 10.0923ZM14.9688 7.25268H2.19058C2.0023 7.25268 1.82174 7.32748 1.68861 7.46061C1.55548 7.59374 1.48068 7.77431 1.48068 7.96258C1.48068 8.15086 1.55548 8.33143 1.68861 8.46456C1.82174 8.59769 2.0023 8.67248 2.19058 8.67248H14.9688C15.157 8.67248 15.3376 8.59769 15.4707 8.46456C15.6039 8.33143 15.6787 8.15086 15.6787 7.96258C15.6787 7.77431 15.6039 7.59374 15.4707 7.46061C15.3376 7.32748 15.157 7.25268 14.9688 7.25268Z" fill="black"/>
</svg>
