<svg width="18" height="18" viewBox="0 0 18 18" fill="none" xmlns="http://www.w3.org/2000/svg">
<path d="M2.19057 5.83288H14.9688C15.157 5.83288 15.3376 5.75809 15.4707 5.62496C15.6039 5.49183 15.6787 5.31126 15.6787 5.12299C15.6787 4.93471 15.6039 4.75414 15.4707 4.62101C15.3376 4.48788 15.157 4.41309 14.9688 4.41309H2.19057C2.00229 4.41309 1.82172 4.48788 1.68859 4.62101C1.55546 4.75414 1.48067 4.93471 1.48067 5.12299C1.48067 5.31126 1.55546 5.49183 1.68859 5.62496C1.82172 5.75809 2.00229 5.83288 2.19057 5.83288V5.83288ZM14.9688 12.9319H2.19057C2.00229 12.9319 1.82172 13.0067 1.68859 13.1398C1.55546 13.2729 1.48067 13.4535 1.48067 13.6418C1.48067 13.8301 1.55546 14.0106 1.68859 14.1438C1.82172 14.2769 2.00229 14.3517 2.19057 14.3517H14.9688C15.157 14.3517 15.3376 14.2769 15.4707 14.1438C15.6039 14.0106 15.6787 13.8301 15.6787 13.6418C15.6787 13.4535 15.6039 13.2729 15.4707 13.1398C15.3376 13.0067 15.157 12.9319 14.9688 12.9319ZM14.9688 10.0923H2.19057C2.00229 10.0923 1.82172 10.1671 1.68859 10.3002C1.55546 10.4333 1.48067 10.6139 1.48067 10.8022C1.48067 10.9905 1.55546 11.171 1.68859 11.3042C1.82172 11.4373 2.00229 11.5121 2.19057 11.5121H14.9688C15.157 11.5121 15.3376 11.4373 15.4707 11.3042C15.6039 11.171 15.6787 10.9905 15.6787 10.8022C15.6787 10.6139 15.6039 10.4333 15.4707 10.3002C15.3376 10.1671 15.157 10.0923 14.9688 10.0923ZM14.9688 7.25268H2.19057C2.00229 7.25268 1.82172 7.32748 1.68859 7.46061C1.55546 7.59374 1.48067 7.77431 1.48067 7.96258C1.48067 8.15086 1.55546 8.33143 1.68859 8.46456C1.82172 8.59769 2.00229 8.67248 2.19057 8.67248H14.9688C15.157 8.67248 15.3376 8.59769 15.4707 8.46456C15.6039 8.33143 15.6787 8.15086 15.6787 7.96258C15.6787 7.77431 15.6039 7.59374 15.4707 7.46061C15.3376 7.32748 15.157 7.25268 14.9688 7.25268Z" fill="black"/>
</svg>
