<svg width="18" height="18" viewBox="0 0 18 18" fill="none" xmlns="http://www.w3.org/2000/svg">
<path d="M2.19037 5.83288H14.9686C15.1568 5.83288 15.3374 5.75809 15.4705 5.62496C15.6037 5.49183 15.6785 5.31126 15.6785 5.12299C15.6785 4.93471 15.6037 4.75414 15.4705 4.62101C15.3374 4.48788 15.1568 4.41309 14.9686 4.41309H2.19037C2.00209 4.41309 1.82153 4.48788 1.68839 4.62101C1.55526 4.75414 1.48047 4.93471 1.48047 5.12299C1.48047 5.31126 1.55526 5.49183 1.68839 5.62496C1.82153 5.75809 2.00209 5.83288 2.19037 5.83288V5.83288ZM14.9686 12.9319H2.19037C2.00209 12.9319 1.82153 13.0067 1.68839 13.1398C1.55526 13.2729 1.48047 13.4535 1.48047 13.6418C1.48047 13.8301 1.55526 14.0106 1.68839 14.1438C1.82153 14.2769 2.00209 14.3517 2.19037 14.3517H14.9686C15.1568 14.3517 15.3374 14.2769 15.4705 14.1438C15.6037 14.0106 15.6785 13.8301 15.6785 13.6418C15.6785 13.4535 15.6037 13.2729 15.4705 13.1398C15.3374 13.0067 15.1568 12.9319 14.9686 12.9319ZM14.9686 10.0923H2.19037C2.00209 10.0923 1.82153 10.1671 1.68839 10.3002C1.55526 10.4333 1.48047 10.6139 1.48047 10.8022C1.48047 10.9905 1.55526 11.171 1.68839 11.3042C1.82153 11.4373 2.00209 11.5121 2.19037 11.5121H14.9686C15.1568 11.5121 15.3374 11.4373 15.4705 11.3042C15.6037 11.171 15.6785 10.9905 15.6785 10.8022C15.6785 10.6139 15.6037 10.4333 15.4705 10.3002C15.3374 10.1671 15.1568 10.0923 14.9686 10.0923ZM14.9686 7.25268H2.19037C2.00209 7.25268 1.82153 7.32748 1.68839 7.46061C1.55526 7.59374 1.48047 7.77431 1.48047 7.96258C1.48047 8.15086 1.55526 8.33143 1.68839 8.46456C1.82153 8.59769 2.00209 8.67248 2.19037 8.67248H14.9686C15.1568 8.67248 15.3374 8.59769 15.4705 8.46456C15.6037 8.33143 15.6785 8.15086 15.6785 7.96258C15.6785 7.77431 15.6037 7.59374 15.4705 7.46061C15.3374 7.32748 15.1568 7.25268 14.9686 7.25268Z" fill="black"/>
</svg>
