<svg width="314" height="5" viewBox="0 0 314 5" fill="none" xmlns="http://www.w3.org/2000/svg">
<path d="M0.491858 2.64893C0.491858 3.74828 1.38306 4.63949 2.48242 4.63949C3.58178 4.63949 4.47299 3.74828 4.47299 2.64893C4.47299 1.54957 3.58178 0.658362 2.48242 0.658362C1.38306 0.658362 0.491858 1.54957 0.491858 2.64893ZM309.527 2.64893C309.527 3.74828 310.418 4.63949 311.518 4.63949C312.617 4.63949 313.508 3.74828 313.508 2.64893C313.508 1.54957 312.617 0.658362 311.518 0.658362C310.418 0.658362 309.527 1.54957 309.527 2.64893ZM2.48242 3.02216H311.518V2.27569H2.48242V3.02216Z" fill="black" fill-opacity="0.5"/>
</svg>
