<svg width="314" height="5" viewBox="0 0 314 5" fill="none" xmlns="http://www.w3.org/2000/svg">
<path d="M0.126273 2.32568C0.126273 3.51558 1.09087 4.48017 2.28076 4.48017C3.47065 4.48017 4.43525 3.51558 4.43525 2.32568C4.43525 1.13579 3.47065 0.171195 2.28076 0.171195C1.09087 0.171195 0.126273 1.13579 0.126273 2.32568ZM309.565 2.32568C309.565 3.51558 310.529 4.48017 311.719 4.48017C312.909 4.48017 313.874 3.51558 313.874 2.32568C313.874 1.13579 312.909 0.171195 311.719 0.171195C310.529 0.171195 309.565 1.13579 309.565 2.32568ZM2.28076 2.72965H311.719V1.92172H2.28076V2.72965Z" fill="black" fill-opacity="0.5"/>
</svg>
