<svg width="314" height="5" viewBox="0 0 314 5" fill="none" xmlns="http://www.w3.org/2000/svg">
<path d="M0.851202 2.22412C0.851202 3.23646 1.67187 4.05712 2.6842 4.05712C3.69654 4.05712 4.51721 3.23646 4.51721 2.22412C4.51721 1.21178 3.69654 0.391119 2.6842 0.391119C1.67187 0.391119 0.851202 1.21178 0.851202 2.22412ZM309.483 2.22412C309.483 3.23646 310.303 4.05712 311.316 4.05712C312.328 4.05712 313.149 3.23646 313.149 2.22412C313.149 1.21178 312.328 0.391119 311.316 0.391119C310.303 0.391119 309.483 1.21178 309.483 2.22412ZM2.6842 2.56781H311.316V1.88043H2.6842V2.56781Z" fill="black" fill-opacity="0.5"/>
</svg>
