<svg width="16" height="16" viewBox="0 0 16 16" fill="none" xmlns="http://www.w3.org/2000/svg">
<path d="M7.97662 2.04688C6.80658 2.04687 5.66282 2.39383 4.68996 3.04387C3.71711 3.69391 2.95886 4.61784 2.51111 5.69881C2.06335 6.77979 1.9462 7.96927 2.17446 9.11682C2.40273 10.2644 2.96616 11.3185 3.7935 12.1458C4.62084 12.9732 5.67494 13.5366 6.8225 13.7649C7.97006 13.9931 9.15953 13.876 10.2405 13.4282C11.3215 12.9805 12.2454 12.2222 12.8955 11.2494C13.5455 10.2765 13.8924 9.13274 13.8924 7.9627C13.8924 7.18583 13.7394 6.41655 13.4421 5.69881C13.1448 4.98107 12.7091 4.32892 12.1597 3.77958C11.6104 3.23025 10.9583 2.79449 10.2405 2.49719C9.52277 2.19989 8.7535 2.04688 7.97662 2.04688V2.04688ZM7.97662 12.6954C7.04059 12.6954 6.12558 12.4178 5.3473 11.8978C4.56901 11.3777 3.96242 10.6386 3.60421 9.77381C3.24601 8.90903 3.15229 7.95745 3.3349 7.03941C3.51751 6.12136 3.96825 5.27808 4.63012 4.61621C5.292 3.95433 6.13528 3.50359 7.05333 3.32098C7.97137 3.13837 8.92295 3.23209 9.78773 3.59029C10.6525 3.9485 11.3917 4.55509 11.9117 5.33338C12.4317 6.11166 12.7093 7.02667 12.7093 7.9627C12.7093 9.21788 12.2107 10.4217 11.3231 11.3092C10.4356 12.1967 9.2318 12.6954 7.97662 12.6954V12.6954ZM10.343 7.37112H5.61029C5.45339 7.37112 5.30292 7.43345 5.19198 7.54439C5.08103 7.65533 5.01871 7.80581 5.01871 7.9627C5.01871 8.1196 5.08103 8.27007 5.19198 8.38101C5.30292 8.49196 5.45339 8.55429 5.61029 8.55429H10.343C10.4999 8.55429 10.6503 8.49196 10.7613 8.38101C10.8722 8.27007 10.9345 8.1196 10.9345 7.9627C10.9345 7.80581 10.8722 7.65533 10.7613 7.54439C10.6503 7.43345 10.4999 7.37112 10.343 7.37112Z" fill="black"/>
</svg>
