<svg width="16" height="16" viewBox="0 0 16 16" fill="none" xmlns="http://www.w3.org/2000/svg">
<path d="M7.97674 2.04639C6.8067 2.04639 5.66294 2.39334 4.69009 3.04338C3.71723 3.69342 2.95899 4.61735 2.51123 5.69832C2.06348 6.7793 1.94632 7.96878 2.17459 9.11634C2.40285 10.2639 2.96628 11.318 3.79362 12.1453C4.62096 12.9727 5.67506 13.5361 6.82262 13.7644C7.97018 13.9926 9.15966 13.8755 10.2406 13.4277C11.3216 12.98 12.2455 12.2217 12.8956 11.2489C13.5456 10.276 13.8926 9.13225 13.8926 7.96221C13.8926 7.18534 13.7396 6.41607 13.4423 5.69832C13.145 4.98058 12.7092 4.32843 12.1599 3.77909C11.6105 3.22976 10.9584 2.794 10.2406 2.4967C9.52289 2.1994 8.75362 2.04639 7.97674 2.04639V2.04639ZM7.97674 12.6949C7.04071 12.6949 6.1257 12.4173 5.34742 11.8973C4.56913 11.3772 3.96254 10.6381 3.60433 9.77333C3.24613 8.90854 3.15241 7.95696 3.33502 7.03892C3.51763 6.12087 3.96837 5.27759 4.63025 4.61572C5.29212 3.95384 6.1354 3.5031 7.05345 3.32049C7.97149 3.13788 8.92307 3.2316 9.78785 3.5898C10.6526 3.94801 11.3918 4.55461 11.9118 5.33289C12.4318 6.11117 12.7094 7.02618 12.7094 7.96221C12.7094 9.21739 12.2108 10.4212 11.3232 11.3087C10.4357 12.1963 9.23192 12.6949 7.97674 12.6949V12.6949ZM10.3431 7.37063H5.61041C5.45351 7.37063 5.30304 7.43296 5.1921 7.5439C5.08116 7.65485 5.01883 7.80532 5.01883 7.96221C5.01883 8.11911 5.08116 8.26958 5.1921 8.38053C5.30304 8.49147 5.45351 8.5538 5.61041 8.5538H10.3431C10.5 8.5538 10.6504 8.49147 10.7614 8.38053C10.8723 8.26958 10.9347 8.11911 10.9347 7.96221C10.9347 7.80532 10.8723 7.65485 10.7614 7.5439C10.6504 7.43296 10.5 7.37063 10.3431 7.37063Z" fill="black"/>
</svg>
