<svg width="16" height="16" viewBox="0 0 16 16" fill="none" xmlns="http://www.w3.org/2000/svg">
<path d="M7.97674 2.04688C6.8067 2.04687 5.66294 2.39383 4.69009 3.04387C3.71723 3.69391 2.95899 4.61784 2.51123 5.69881C2.06348 6.77979 1.94632 7.96927 2.17459 9.11682C2.40285 10.2644 2.96628 11.3185 3.79362 12.1458C4.62096 12.9732 5.67506 13.5366 6.82262 13.7649C7.97018 13.9931 9.15966 13.876 10.2406 13.4282C11.3216 12.9805 12.2455 12.2222 12.8956 11.2494C13.5456 10.2765 13.8926 9.13274 13.8926 7.9627C13.8926 7.18583 13.7396 6.41655 13.4423 5.69881C13.145 4.98107 12.7092 4.32892 12.1599 3.77958C11.6105 3.23025 10.9584 2.79449 10.2406 2.49719C9.52289 2.19989 8.75362 2.04688 7.97674 2.04688V2.04688ZM7.97674 12.6954C7.04071 12.6954 6.1257 12.4178 5.34742 11.8978C4.56913 11.3777 3.96254 10.6386 3.60433 9.77381C3.24613 8.90903 3.15241 7.95745 3.33502 7.03941C3.51763 6.12136 3.96837 5.27808 4.63025 4.61621C5.29212 3.95433 6.1354 3.50359 7.05345 3.32098C7.97149 3.13837 8.92307 3.23209 9.78785 3.59029C10.6526 3.9485 11.3918 4.55509 11.9118 5.33338C12.4318 6.11166 12.7094 7.02667 12.7094 7.9627C12.7094 9.21788 12.2108 10.4217 11.3232 11.3092C10.4357 12.1967 9.23192 12.6954 7.97674 12.6954V12.6954ZM10.3431 7.37112H5.61041C5.45351 7.37112 5.30304 7.43345 5.1921 7.54439C5.08116 7.65533 5.01883 7.80581 5.01883 7.9627C5.01883 8.1196 5.08116 8.27007 5.1921 8.38101C5.30304 8.49196 5.45351 8.55429 5.61041 8.55429H10.3431C10.5 8.55429 10.6504 8.49196 10.7614 8.38101C10.8723 8.27007 10.9347 8.1196 10.9347 7.9627C10.9347 7.80581 10.8723 7.65533 10.7614 7.54439C10.6504 7.43345 10.5 7.37112 10.3431 7.37112Z" fill="black"/>
</svg>
