<svg width="16" height="16" viewBox="0 0 16 16" fill="none" xmlns="http://www.w3.org/2000/svg">
<path d="M7.97668 2.04688C6.80664 2.04687 5.66288 2.39383 4.69002 3.04387C3.71717 3.69391 2.95893 4.61784 2.51117 5.69881C2.06342 6.77979 1.94626 7.96927 2.17453 9.11682C2.40279 10.2644 2.96622 11.3185 3.79356 12.1458C4.6209 12.9732 5.675 13.5366 6.82256 13.7649C7.97012 13.9931 9.1596 13.876 10.2406 13.4282C11.3215 12.9805 12.2455 12.2222 12.8955 11.2494C13.5456 10.2765 13.8925 9.13274 13.8925 7.9627C13.8925 7.18583 13.7395 6.41655 13.4422 5.69881C13.1449 4.98107 12.7091 4.32892 12.1598 3.77958C11.6105 3.23025 10.9583 2.79449 10.2406 2.49719C9.52283 2.19989 8.75356 2.04688 7.97668 2.04688V2.04688ZM7.97668 12.6954C7.04065 12.6954 6.12564 12.4178 5.34736 11.8978C4.56907 11.3777 3.96248 10.6386 3.60427 9.77381C3.24607 8.90903 3.15235 7.95745 3.33496 7.03941C3.51757 6.12136 3.96831 5.27808 4.63018 4.61621C5.29206 3.95433 6.13534 3.50359 7.05339 3.32098C7.97143 3.13837 8.92301 3.23209 9.78779 3.59029C10.6526 3.9485 11.3917 4.55509 11.9117 5.33338C12.4318 6.11166 12.7093 7.02667 12.7093 7.9627C12.7093 9.21788 12.2107 10.4217 11.3232 11.3092C10.4356 12.1967 9.23186 12.6954 7.97668 12.6954V12.6954ZM10.343 7.37112H5.61035C5.45345 7.37112 5.30298 7.43345 5.19204 7.54439C5.0811 7.65533 5.01877 7.80581 5.01877 7.9627C5.01877 8.1196 5.0811 8.27007 5.19204 8.38101C5.30298 8.49196 5.45345 8.55429 5.61035 8.55429H10.343C10.4999 8.55429 10.6504 8.49196 10.7613 8.38101C10.8723 8.27007 10.9346 8.1196 10.9346 7.9627C10.9346 7.80581 10.8723 7.65533 10.7613 7.54439C10.6504 7.43345 10.4999 7.37112 10.343 7.37112Z" fill="black"/>
</svg>
