<svg width="16" height="16" viewBox="0 0 16 16" fill="none" xmlns="http://www.w3.org/2000/svg">
<path d="M7.97671 2.04688C6.80667 2.04687 5.66291 2.39383 4.69006 3.04387C3.7172 3.69391 2.95896 4.61784 2.5112 5.69881C2.06345 6.77979 1.94629 7.96927 2.17456 9.11682C2.40282 10.2644 2.96625 11.3185 3.79359 12.1458C4.62093 12.9732 5.67503 13.5366 6.82259 13.7649C7.97015 13.9931 9.15963 13.876 10.2406 13.4282C11.3216 12.9805 12.2455 12.2222 12.8955 11.2494C13.5456 10.2765 13.8925 9.13274 13.8925 7.9627C13.8925 7.18583 13.7395 6.41655 13.4422 5.69881C13.1449 4.98107 12.7092 4.32892 12.1598 3.77958C11.6105 3.23025 10.9583 2.79449 10.2406 2.49719C9.52286 2.19989 8.75359 2.04688 7.97671 2.04688V2.04688ZM7.97671 12.6954C7.04068 12.6954 6.12567 12.4178 5.34739 11.8978C4.5691 11.3777 3.96251 10.6386 3.6043 9.77381C3.2461 8.90903 3.15238 7.95745 3.33499 7.03941C3.5176 6.12136 3.96834 5.27808 4.63022 4.61621C5.29209 3.95433 6.13537 3.50359 7.05342 3.32098C7.97146 3.13837 8.92304 3.23209 9.78782 3.59029C10.6526 3.9485 11.3917 4.55509 11.9118 5.33338C12.4318 6.11166 12.7094 7.02667 12.7094 7.9627C12.7094 9.21788 12.2108 10.4217 11.3232 11.3092C10.4357 12.1967 9.23189 12.6954 7.97671 12.6954V12.6954ZM10.343 7.37112H5.61038C5.45348 7.37112 5.30301 7.43345 5.19207 7.54439C5.08113 7.65533 5.0188 7.80581 5.0188 7.9627C5.0188 8.1196 5.08113 8.27007 5.19207 8.38101C5.30301 8.49196 5.45348 8.55429 5.61038 8.55429H10.343C10.4999 8.55429 10.6504 8.49196 10.7614 8.38101C10.8723 8.27007 10.9346 8.1196 10.9346 7.9627C10.9346 7.80581 10.8723 7.65533 10.7614 7.54439C10.6504 7.43345 10.4999 7.37112 10.343 7.37112Z" fill="black"/>
</svg>
