<svg width="19" height="20" viewBox="0 0 19 20" fill="none" xmlns="http://www.w3.org/2000/svg">
<path d="M16.1656 7.97744L5.60194 2.69563C5.18504 2.48813 4.7143 2.41426 4.25389 2.48409C3.79348 2.55392 3.36581 2.76404 3.02919 3.08581C2.69256 3.40759 2.46337 3.82535 2.37285 4.28214C2.28234 4.73893 2.33491 5.21253 2.52339 5.63835L4.3343 9.69026C4.37539 9.78823 4.39655 9.89339 4.39655 9.99963C4.39655 10.1059 4.37539 10.211 4.3343 10.309L2.52339 14.3609C2.36999 14.7055 2.30514 15.083 2.33474 15.459C2.36433 15.8351 2.48743 16.1978 2.69285 16.5142C2.89826 16.8305 3.17949 17.0905 3.51096 17.2706C3.84243 17.4506 4.21363 17.545 4.59085 17.5451C4.94415 17.5416 5.29219 17.4591 5.60948 17.3036L16.1731 12.0218C16.5478 11.8333 16.8628 11.5444 17.0829 11.1873C17.3029 10.8303 17.4195 10.4191 17.4195 9.99963C17.4195 9.58018 17.3029 9.16898 17.0829 8.81191C16.8628 8.45484 16.5478 8.16594 16.1731 7.97744H16.1656ZM15.494 10.6712L4.93039 15.953C4.79168 16.0196 4.63592 16.0422 4.48399 16.0178C4.33207 15.9933 4.19124 15.923 4.0804 15.8163C3.96956 15.7096 3.89401 15.5715 3.86386 15.4206C3.83372 15.2697 3.85043 15.1132 3.91175 14.9721L5.71512 10.9202C5.73846 10.8661 5.75862 10.8106 5.77548 10.7542H10.9743C11.1744 10.7542 11.3663 10.6747 11.5078 10.5332C11.6493 10.3917 11.7288 10.1997 11.7288 9.99963C11.7288 9.79951 11.6493 9.60759 11.5078 9.46608C11.3663 9.32458 11.1744 9.24508 10.9743 9.24508H5.77548C5.75862 9.18862 5.73846 9.13319 5.71512 9.07908L3.91175 5.02717C3.85043 4.88604 3.83372 4.72954 3.86386 4.57865C3.89401 4.42775 3.96956 4.28968 4.0804 4.18295C4.19124 4.07621 4.33207 4.00592 4.48399 3.98149C4.63592 3.95706 4.79168 3.97966 4.93039 4.04626L15.494 9.32808C15.6176 9.3914 15.7213 9.4876 15.7938 9.60609C15.8662 9.72458 15.9045 9.86076 15.9045 9.99963C15.9045 10.1385 15.8662 10.2747 15.7938 10.3932C15.7213 10.5117 15.6176 10.6079 15.494 10.6712V10.6712Z" fill="#6D6D6D"/>
</svg>
