<svg width="19" height="20" viewBox="0 0 19 20" fill="none" xmlns="http://www.w3.org/2000/svg">
<path d="M16.1657 7.97744L5.60206 2.69563C5.18517 2.48813 4.71442 2.41426 4.25401 2.48409C3.7936 2.55392 3.36593 2.76404 3.02931 3.08581C2.69268 3.40759 2.46349 3.82535 2.37298 4.28214C2.28246 4.73893 2.33503 5.21253 2.52351 5.63835L4.33442 9.69026C4.37551 9.78823 4.39667 9.89339 4.39667 9.99963C4.39667 10.1059 4.37551 10.211 4.33442 10.309L2.52351 14.3609C2.37011 14.7055 2.30526 15.083 2.33486 15.459C2.36445 15.8351 2.48755 16.1978 2.69297 16.5142C2.89839 16.8305 3.17961 17.0905 3.51108 17.2706C3.84255 17.4506 4.21376 17.545 4.59097 17.5451C4.94427 17.5416 5.29231 17.4591 5.6096 17.3036L16.1732 12.0218C16.5479 11.8333 16.8629 11.5444 17.083 11.1873C17.3031 10.8303 17.4196 10.4191 17.4196 9.99963C17.4196 9.58018 17.3031 9.16898 17.083 8.81191C16.8629 8.45484 16.5479 8.16594 16.1732 7.97744H16.1657ZM15.4941 10.6712L4.93051 15.953C4.7918 16.0196 4.63604 16.0422 4.48411 16.0178C4.33219 15.9933 4.19137 15.923 4.08053 15.8163C3.96969 15.7096 3.89413 15.5715 3.86399 15.4206C3.83384 15.2697 3.85055 15.1132 3.91188 14.9721L5.71524 10.9202C5.73858 10.8661 5.75874 10.8106 5.7756 10.7542H10.9744C11.1745 10.7542 11.3665 10.6747 11.508 10.5332C11.6495 10.3917 11.729 10.1997 11.729 9.99963C11.729 9.79951 11.6495 9.60759 11.508 9.46608C11.3665 9.32458 11.1745 9.24508 10.9744 9.24508H5.7756C5.75874 9.18862 5.73858 9.13319 5.71524 9.07908L3.91188 5.02717C3.85055 4.88604 3.83384 4.72954 3.86399 4.57865C3.89413 4.42775 3.96969 4.28968 4.08053 4.18295C4.19137 4.07621 4.33219 4.00592 4.48411 3.98149C4.63604 3.95706 4.7918 3.97966 4.93051 4.04626L15.4941 9.32808C15.6177 9.3914 15.7215 9.4876 15.7939 9.60609C15.8663 9.72458 15.9047 9.86076 15.9047 9.99963C15.9047 10.1385 15.8663 10.2747 15.7939 10.3932C15.7215 10.5117 15.6177 10.6079 15.4941 10.6712V10.6712Z" fill="#6D6D6D"/>
</svg>
