<svg width="19" height="20" viewBox="0 0 19 20" fill="none" xmlns="http://www.w3.org/2000/svg">
<path d="M16.1656 7.97744L5.602 2.69563C5.1851 2.48813 4.71436 2.41426 4.25395 2.48409C3.79354 2.55392 3.36587 2.76404 3.02925 3.08581C2.69262 3.40759 2.46343 3.82535 2.37291 4.28214C2.2824 4.73893 2.33497 5.21253 2.52345 5.63835L4.33436 9.69026C4.37545 9.78823 4.39661 9.89339 4.39661 9.99963C4.39661 10.1059 4.37545 10.211 4.33436 10.309L2.52345 14.3609C2.37005 14.7055 2.3052 15.083 2.3348 15.459C2.36439 15.8351 2.48749 16.1978 2.69291 16.5142C2.89833 16.8305 3.17955 17.0905 3.51102 17.2706C3.84249 17.4506 4.2137 17.545 4.59091 17.5451C4.94421 17.5416 5.29225 17.4591 5.60954 17.3036L16.1732 12.0218C16.5479 11.8333 16.8628 11.5444 17.0829 11.1873C17.303 10.8303 17.4195 10.4191 17.4195 9.99963C17.4195 9.58018 17.303 9.16898 17.0829 8.81191C16.8628 8.45484 16.5479 8.16594 16.1732 7.97744H16.1656ZM15.4941 10.6712L4.93045 15.953C4.79174 16.0196 4.63598 16.0422 4.48405 16.0178C4.33213 15.9933 4.19131 15.923 4.08047 15.8163C3.96963 15.7096 3.89407 15.5715 3.86392 15.4206C3.83378 15.2697 3.85049 15.1132 3.91182 14.9721L5.71518 10.9202C5.73852 10.8661 5.75868 10.8106 5.77554 10.7542H10.9744C11.1745 10.7542 11.3664 10.6747 11.5079 10.5332C11.6494 10.3917 11.7289 10.1997 11.7289 9.99963C11.7289 9.79951 11.6494 9.60759 11.5079 9.46608C11.3664 9.32458 11.1745 9.24508 10.9744 9.24508H5.77554C5.75868 9.18862 5.73852 9.13319 5.71518 9.07908L3.91182 5.02717C3.85049 4.88604 3.83378 4.72954 3.86392 4.57865C3.89407 4.42775 3.96963 4.28968 4.08047 4.18295C4.19131 4.07621 4.33213 4.00592 4.48405 3.98149C4.63598 3.95706 4.79174 3.97966 4.93045 4.04626L15.4941 9.32808C15.6177 9.3914 15.7214 9.4876 15.7938 9.60609C15.8663 9.72458 15.9046 9.86076 15.9046 9.99963C15.9046 10.1385 15.8663 10.2747 15.7938 10.3932C15.7214 10.5117 15.6177 10.6079 15.4941 10.6712V10.6712Z" fill="#6D6D6D"/>
</svg>
