<svg width="16" height="16" viewBox="0 0 16 16" fill="none" xmlns="http://www.w3.org/2000/svg">
<path d="M13.8937 5.05784C13.8942 4.97538 13.8784 4.89363 13.8472 4.81729C13.816 4.74094 13.7701 4.6715 13.712 4.61295L11.0552 1.95614C10.9966 1.89807 10.9272 1.85212 10.8509 1.82094C10.7745 1.78975 10.6928 1.77395 10.6103 1.77442C10.5278 1.77395 10.4461 1.78975 10.3697 1.82094C10.2934 1.85212 10.224 1.89807 10.1654 1.95614L8.39211 3.72944L1.5433 10.5782C1.48522 10.6368 1.43928 10.7062 1.40809 10.7826C1.37691 10.8589 1.36111 10.9407 1.36158 11.0231V13.68C1.36158 13.8461 1.4276 14.0055 1.54511 14.123C1.66262 14.2405 1.822 14.3066 1.98819 14.3066H4.645C4.73268 14.3113 4.82038 14.2976 4.90242 14.2663C4.98446 14.235 5.05901 14.1868 5.12122 14.1248L11.9324 7.27603L13.712 5.53406C13.7692 5.47333 13.8158 5.40344 13.8499 5.32728C13.8559 5.27734 13.8559 5.22685 13.8499 5.1769C13.8528 5.14773 13.8528 5.11834 13.8499 5.08917L13.8937 5.05784ZM4.38809 13.0533H2.6148V11.28L8.837 5.05784L10.6103 6.83114L4.38809 13.0533ZM11.4938 5.94763L9.72052 4.17433L10.6103 3.29081L12.3773 5.05784L11.4938 5.94763Z" fill="black"/>
</svg>
