<svg width="16" height="16" viewBox="0 0 16 16" fill="none" xmlns="http://www.w3.org/2000/svg">
<path d="M13.8937 4.76585C13.8942 4.68339 13.8784 4.60164 13.8472 4.52529C13.816 4.44895 13.7701 4.37951 13.712 4.32096L11.0552 1.66415C10.9966 1.60607 10.9272 1.56013 10.8509 1.52894C10.7745 1.49776 10.6928 1.48196 10.6103 1.48243C10.5278 1.48196 10.4461 1.49776 10.3697 1.52894C10.2934 1.56013 10.224 1.60607 10.1654 1.66415L8.39211 3.43745L1.5433 10.2863C1.48522 10.3448 1.43928 10.4142 1.40809 10.4906C1.37691 10.5669 1.36111 10.6487 1.36158 10.7311V13.388C1.36158 13.5541 1.4276 13.7135 1.54511 13.831C1.66262 13.9485 1.822 14.0146 1.98819 14.0146H4.645C4.73268 14.0193 4.82038 14.0056 4.90242 13.9743C4.98446 13.943 5.05901 13.8948 5.12122 13.8329L11.9324 6.98404L13.712 5.24207C13.7692 5.18134 13.8158 5.11145 13.8499 5.03529C13.8559 4.98535 13.8559 4.93485 13.8499 4.88491C13.8528 4.85574 13.8528 4.82635 13.8499 4.79718L13.8937 4.76585ZM4.38809 12.7614H2.6148V10.9881L8.837 4.76585L10.6103 6.53915L4.38809 12.7614ZM11.4938 5.65563L9.72052 3.88234L10.6103 2.99882L12.3773 4.76585L11.4938 5.65563Z" fill="black"/>
</svg>
