<svg width="16" height="16" viewBox="0 0 16 16" fill="none" xmlns="http://www.w3.org/2000/svg">
<path d="M13.8937 5.47386C13.8942 5.39139 13.8784 5.30965 13.8472 5.2333C13.816 5.15696 13.7701 5.08752 13.712 5.02897L11.0552 2.37216C10.9966 2.31408 10.9272 2.26814 10.8509 2.23695C10.7745 2.20577 10.6928 2.18996 10.6103 2.19044C10.5278 2.18996 10.4461 2.20577 10.3697 2.23695C10.2934 2.26814 10.224 2.31408 10.1654 2.37216L8.39211 4.14545L1.5433 10.9943C1.48522 11.0528 1.43928 11.1223 1.40809 11.1986C1.37691 11.2749 1.36111 11.3567 1.36158 11.4392V14.096C1.36158 14.2622 1.4276 14.4215 1.54511 14.539C1.66262 14.6566 1.822 14.7226 1.98819 14.7226H4.645C4.73268 14.7273 4.82038 14.7136 4.90242 14.6823C4.98446 14.651 5.05901 14.6028 5.12122 14.5409L11.9324 7.69205L13.712 5.95008C13.7692 5.88935 13.8158 5.81945 13.8499 5.7433C13.8559 5.69335 13.8559 5.64286 13.8499 5.59291C13.8528 5.56375 13.8528 5.53436 13.8499 5.50519L13.8937 5.47386ZM4.38809 13.4694H2.6148V11.6961L8.837 5.47386L10.6103 7.24716L4.38809 13.4694ZM11.4938 6.36364L9.72052 4.59034L10.6103 3.70683L12.3773 5.47386L11.4938 6.36364Z" fill="black"/>
</svg>
