<svg width="18" height="18" viewBox="0 0 18 18" fill="none" xmlns="http://www.w3.org/2000/svg">
<path d="M13.7326 8.67291H9.47323V4.41351C9.47323 4.22524 9.39844 4.04467 9.26531 3.91154C9.13218 3.77841 8.95161 3.70361 8.76334 3.70361C8.57506 3.70361 8.39449 3.77841 8.26136 3.91154C8.12823 4.04467 8.05344 4.22524 8.05344 4.41351V8.67291H3.79404C3.60576 8.67291 3.4252 8.7477 3.29207 8.88083C3.15893 9.01397 3.08414 9.19453 3.08414 9.38281C3.08414 9.57108 3.15893 9.75165 3.29207 9.88478C3.4252 10.0179 3.60576 10.0927 3.79404 10.0927H8.05344V14.3521C8.05344 14.5404 8.12823 14.7209 8.26136 14.8541C8.39449 14.9872 8.57506 15.062 8.76334 15.062C8.95161 15.062 9.13218 14.9872 9.26531 14.8541C9.39844 14.7209 9.47323 14.5404 9.47323 14.3521V10.0927H13.7326C13.9209 10.0927 14.1015 10.0179 14.2346 9.88478C14.3677 9.75165 14.4425 9.57108 14.4425 9.38281C14.4425 9.19453 14.3677 9.01397 14.2346 8.88083C14.1015 8.7477 13.9209 8.67291 13.7326 8.67291Z" fill="black"/>
</svg>
