<svg width="18" height="18" viewBox="0 0 18 18" fill="none" xmlns="http://www.w3.org/2000/svg">
<path d="M13.7326 8.67242H9.4732V4.41302C9.4732 4.22475 9.39841 4.04418 9.26528 3.91105C9.13214 3.77792 8.95158 3.70313 8.7633 3.70312C8.57502 3.70313 8.39446 3.77792 8.26133 3.91105C8.12819 4.04418 8.0534 4.22475 8.0534 4.41302V8.67242H3.79401C3.60573 8.67242 3.42516 8.74721 3.29203 8.88034C3.1589 9.01348 3.08411 9.19404 3.08411 9.38232C3.08411 9.5706 3.1589 9.75116 3.29203 9.88429C3.42516 10.0174 3.60573 10.0922 3.79401 10.0922H8.0534V14.3516C8.0534 14.5399 8.12819 14.7205 8.26133 14.8536C8.39446 14.9867 8.57502 15.0615 8.7633 15.0615C8.95158 15.0615 9.13214 14.9867 9.26528 14.8536C9.39841 14.7205 9.4732 14.5399 9.4732 14.3516V10.0922H13.7326C13.9209 10.0922 14.1014 10.0174 14.2346 9.88429C14.3677 9.75116 14.4425 9.5706 14.4425 9.38232C14.4425 9.19404 14.3677 9.01348 14.2346 8.88034C14.1014 8.74721 13.9209 8.67242 13.7326 8.67242Z" fill="black"/>
</svg>
