<svg width="18" height="18" viewBox="0 0 18 18" fill="none" xmlns="http://www.w3.org/2000/svg">
<path d="M13.7326 8.67291H9.4732V4.41351C9.4732 4.22524 9.39841 4.04467 9.26528 3.91154C9.13214 3.77841 8.95158 3.70361 8.7633 3.70361C8.57502 3.70361 8.39446 3.77841 8.26133 3.91154C8.12819 4.04467 8.0534 4.22524 8.0534 4.41351V8.67291H3.79401C3.60573 8.67291 3.42516 8.7477 3.29203 8.88083C3.1589 9.01397 3.08411 9.19453 3.08411 9.38281C3.08411 9.57108 3.1589 9.75165 3.29203 9.88478C3.42516 10.0179 3.60573 10.0927 3.79401 10.0927H8.0534V14.3521C8.0534 14.5404 8.12819 14.7209 8.26133 14.8541C8.39446 14.9872 8.57502 15.062 8.7633 15.062C8.95158 15.062 9.13214 14.9872 9.26528 14.8541C9.39841 14.7209 9.4732 14.5404 9.4732 14.3521V10.0927H13.7326C13.9209 10.0927 14.1014 10.0179 14.2346 9.88478C14.3677 9.75165 14.4425 9.57108 14.4425 9.38281C14.4425 9.19453 14.3677 9.01397 14.2346 8.88083C14.1014 8.7477 13.9209 8.67291 13.7326 8.67291Z" fill="black"/>
</svg>
