<svg width="17" height="14" viewBox="0 0 17 14" fill="none" xmlns="http://www.w3.org/2000/svg">
<path d="M12.6132 6.34125H2.86416L4.79883 4.41499C4.87726 4.33656 4.93948 4.24346 4.98192 4.14098C5.02437 4.03851 5.04621 3.92868 5.04621 3.81777C5.04621 3.70685 5.02437 3.59702 4.98192 3.49455C4.93948 3.39208 4.87726 3.29897 4.79883 3.22054C4.72041 3.14212 4.6273 3.0799 4.52482 3.03746C4.42235 2.99501 4.31252 2.97317 4.20161 2.97317C4.09069 2.97317 3.98087 2.99501 3.87839 3.03746C3.77592 3.0799 3.68281 3.14212 3.60439 3.22054L0.239742 6.58519C0.163162 6.66518 0.103133 6.75952 0.0630984 6.86277C-0.0210328 7.06756 -0.0210328 7.29726 0.0630984 7.50205C0.103133 7.60531 0.163162 7.69964 0.239742 7.77963L3.60439 11.1443C3.68258 11.2231 3.77562 11.2857 3.87812 11.3284C3.98062 11.3711 4.09057 11.3931 4.20161 11.3931C4.31265 11.3931 4.4226 11.3711 4.5251 11.3284C4.6276 11.2857 4.72064 11.2231 4.79883 11.1443C4.87767 11.0661 4.94025 10.973 4.98296 10.8705C5.02566 10.768 5.04765 10.6581 5.04765 10.5471C5.04765 10.436 5.02566 10.3261 4.98296 10.2236C4.94025 10.1211 4.87767 10.028 4.79883 9.94983L2.86416 8.02357H12.6132C12.8363 8.02357 13.0503 7.93495 13.208 7.7772C13.3658 7.61945 13.4544 7.4055 13.4544 7.18241C13.4544 6.95932 13.3658 6.74537 13.208 6.58762C13.0503 6.42987 12.8363 6.34125 12.6132 6.34125ZM15.9779 0.453125C15.7548 0.453125 15.5408 0.541747 15.3831 0.699495C15.2253 0.857244 15.1367 1.0712 15.1367 1.29429V13.0705C15.1367 13.2936 15.2253 13.5076 15.3831 13.6653C15.5408 13.8231 15.7548 13.9117 15.9779 13.9117C16.201 13.9117 16.4149 13.8231 16.5727 13.6653C16.7304 13.5076 16.819 13.2936 16.819 13.0705V1.29429C16.819 1.0712 16.7304 0.857244 16.5727 0.699495C16.4149 0.541747 16.201 0.453125 15.9779 0.453125V0.453125Z" fill="black"/>
</svg>
