<svg width="17" height="12" viewBox="0 0 17 12" fill="none" xmlns="http://www.w3.org/2000/svg">
<path d="M16.4225 5.61915C16.3749 5.4964 16.3035 5.38425 16.2125 5.28915L12.2125 1.28915C12.1192 1.19591 12.0086 1.12195 11.8867 1.07149C11.7649 1.02103 11.6343 0.995056 11.5025 0.995056C11.2362 0.995056 10.9808 1.10084 10.7925 1.28915C10.6042 1.47745 10.4984 1.73285 10.4984 1.99915C10.4984 2.26545 10.6042 2.52084 10.7925 2.70915L13.0925 4.99915H1.50249C1.23727 4.99915 0.982917 5.10451 0.795381 5.29204C0.607844 5.47958 0.502487 5.73393 0.502487 5.99915C0.502487 6.26436 0.607844 6.51872 0.795381 6.70625C0.982917 6.89379 1.23727 6.99915 1.50249 6.99915H13.0925L10.7925 9.28915C10.6988 9.38211 10.6244 9.49271 10.5736 9.61457C10.5228 9.73643 10.4967 9.86714 10.4967 9.99915C10.4967 10.1312 10.5228 10.2619 10.5736 10.3837C10.6244 10.5056 10.6988 10.6162 10.7925 10.7091C10.8855 10.8029 10.9961 10.8773 11.1179 10.928C11.2398 10.9788 11.3705 11.0049 11.5025 11.0049C11.6345 11.0049 11.7652 10.9788 11.8871 10.928C12.0089 10.8773 12.1195 10.8029 12.2125 10.7091L16.2125 6.70915C16.3035 6.61404 16.3749 6.5019 16.4225 6.37915C16.5225 6.13569 16.5225 5.86261 16.4225 5.61915Z" fill="black"/>
</svg>
